<!DOCTYPE svg PUBLIC "-//W3C//DTD SVG 1.1//EN" "https://www.w3.org/Graphics/SVG/1.1/DTD/svg11.dtd"><svg xmlns="http://www.w3.org/2000/svg" id="sfn-svg" class="sfn-workflow-graph" width="647" height="446">
    
    
<g transform="translate(12,19.180986404418945)"><g class="nodes"><g class="node-container" transform="translate(396.20514488220215,18.800000190734863)"><g class="node anchor"><circle class="shape" x="-15.980987548828125" y="-8.800000190734863" r="25.980987548828125"/><text class="label"><tspan xml:space="preserve" text-anchor="middle" alignment-baseline="central">Start</tspan></text></g></g><g class="node-container" transform="translate(278.56991386413574,391.80000019073486)"><g class="node anchor"><circle class="shape" x="-12.175000190734863" y="-8.800000190734863" r="22.175000190734863"/><text class="label"><tspan xml:space="preserve" text-anchor="middle" alignment-baseline="central">End</tspan></text></g></g><g class="node-container" transform="translate(396.20514488220215,81.40000057220459)"><g class="node state Task NotYetStarted"><rect class="shape" rx="5" ry="5" x="-56.23496627807617" y="-18.800000190734863" width="112.46993255615234" height="37.60000038146973"/><text class="label"><tspan xml:space="preserve" text-anchor="middle" alignment-baseline="central">CreateAccount</tspan></text></g></g><g class="node-container" transform="translate(185.2704620361328,144.00000095367432)"><g class="node state Choice NotYetStarted"><rect class="shape" rx="5" ry="5" x="-70.32695388793945" y="-18.800000190734863" width="140.6539077758789" height="37.60000038146973"/><text class="label"><tspan xml:space="preserve" text-anchor="middle" alignment-baseline="central">Is account created?</tspan></text></g></g><g class="node-container" transform="translate(381.20514488220215,144.00000095367432)"><g class="node state Pass NotYetStarted"><rect class="shape" rx="5" ry="5" x="-76.2719497680664" y="-18.800000190734863" width="152.5438995361328" height="37.60000038146973"/><text class="label"><tspan xml:space="preserve" text-anchor="middle" alignment-baseline="central">CustomErrorFallback</tspan></text></g></g><g class="node-container" transform="translate(560.1550388336182,144.00000095367432)"><g class="node state Pass NotYetStarted"><rect class="shape" rx="5" ry="5" x="-62.67794418334961" y="-18.800000190734863" width="125.35588836669922" height="37.60000038146973"/><text class="label"><tspan xml:space="preserve" text-anchor="middle" alignment-baseline="central">CatchAllFallback</tspan></text></g></g><g class="node-container" transform="translate(381.20514488220215,206.60000133514404)"><g class="node state Task NotYetStarted"><rect class="shape" rx="5" ry="5" x="-74.1500015258789" y="-18.800000190734863" width="148.3000030517578" height="37.60000038146973"/><text class="label"><tspan xml:space="preserve" text-anchor="middle" alignment-baseline="central">Account not created</tspan></text></g></g><g class="node-container" transform="translate(170.2704620361328,206.60000133514404)"><g class="node state Wait NotYetStarted"><rect class="shape" rx="5" ry="5" x="-72.07894897460938" y="-18.800000190734863" width="144.15789794921875" height="37.60000038146973"/><text class="label"><tspan xml:space="preserve" text-anchor="middle" alignment-baseline="central">Wait 3 sec to notify</tspan></text></g></g><g class="node-container" transform="translate(170.2704620361328,299.20000076293945)"><g class="node state Parallel NotYetStarted Container" transform="translate(-170.2704620361328,-48.79999923706055)"><rect class="shape" rx="19.519999694824218" ry="19.519999694824218" x="0" y="0" width="340.5409240722656" height="97.5999984741211"/><g class="branches" transform="translate(20,40)"><g class="branch" transform="translate(0,0)"><g class="nodes"><g class="node-container" transform="translate(63.73295211791992,18.800000190734863)"><g class="node state Task NotYetStarted"><rect class="shape" rx="5" ry="5" x="-63.73295211791992" y="-18.800000190734863" width="127.46590423583984" height="37.60000038146973"/><text class="label"><tspan xml:space="preserve" text-anchor="middle" alignment-baseline="central">Activate Account</tspan></text></g></g></g><g class="edges"/></g><g class="branch" transform="translate(147.46590423583984,0)"><g class="nodes"><g class="node-container" transform="translate(76.5374984741211,18.800000190734863)"><g class="node state Task NotYetStarted"><rect class="shape" rx="5" ry="5" x="-76.5374984741211" y="-18.800000190734863" width="153.0749969482422" height="37.60000038146973"/><text class="label"><tspan xml:space="preserve" text-anchor="middle" alignment-baseline="central">Send Email to Admin</tspan></text></g></g></g><g class="edges"/></g></g><path class="path" marker-end="url(#arrowhead198)" d="M170.2704620361328,0L170.2704620361328,3.333333333333333C170.2704620361328,6.666666666666666,170.2704620361328,13.333333333333332,155.84754371643066,16.666666666666664C141.42462539672852,20,112.57878875732422,20,98.15587043762207,23.33333333333333C83.73295211791992,26.666666666666664,83.73295211791992,33.33333333333333,83.73295211791992,36.666666666666664L83.73295211791992,40" style="fill: none;"/><path class="path" marker-end="url(#arrowhead199)" d="M170.2704620361328,0L170.2704620361328,3.333333333333333C170.2704620361328,6.666666666666666,170.2704620361328,13.333333333333332,182.55928548177081,16.666666666666664C194.84810892740884,20,219.42575581868488,20,231.71457926432288,23.33333333333333C244.0034027099609,26.666666666666664,244.0034027099609,33.33333333333333,244.00340270996088,36.666666666666664L244.00340270996094,40" style="fill: none;"/></g></g></g><g class="edges"><g class="edge"><path class="path" marker-end="url(#arrowhead200)" d="M339.970178604126,89.74454795284674L314.18689250946045,93.57045675452886C288.4036064147949,97.39636555621098,236.83703422546387,105.0481831595752,211.05374813079834,110.95742529459066C185.2704620361328,116.86666742960611,185.2704620361328,121.03333409627278,185.2704620361328,123.11666742960611L185.2704620361328,125.20000076293945" style="fill: none;"/><defs><marker id="arrowhead200" viewBox="0 0 10 10" refX="9" refY="5" markerUnits="strokeWidth" markerWidth="8" markerHeight="6" orient="auto"><path d="M 0 0 L 10 5 L 0 10 z"/></marker></defs></g><g class="edge"><path class="path" marker-end="url(#arrowhead201)" d="M387.1955601811612,100.20000076293945L386.19715763133473,102.28333409627277C385.1987550815082,104.36666742960611,383.20194998185514,108.53333409627277,382.20354743202864,112.70000076293944C381.20514488220215,116.86666742960611,381.20514488220215,121.03333409627278,381.20514488220215,123.11666742960611L381.20514488220215,125.20000076293945" style="fill: none;"/><defs><marker id="arrowhead201" viewBox="0 0 10 10" refX="9" refY="5" markerUnits="strokeWidth" markerWidth="8" markerHeight="6" orient="auto"><path d="M 0 0 L 10 5 L 0 10 z"/></marker></defs></g><g class="edge"><path class="path" marker-end="url(#arrowhead202)" d="M452.4401111602783,92.13592978086481L470.3925991058349,95.5632749445439C488.3450870513916,98.99062010822303,524.2500629425049,105.84531043558123,542.2025508880615,111.35598893259368C560.1550388336182,116.86666742960611,560.1550388336182,121.03333409627278,560.1550388336182,123.11666742960611L560.1550388336182,125.20000076293945" style="fill: none;"/><defs><marker id="arrowhead202" viewBox="0 0 10 10" refX="9" refY="5" markerUnits="strokeWidth" markerWidth="8" markerHeight="6" orient="auto"><path d="M 0 0 L 10 5 L 0 10 z"/></marker></defs></g><g class="edge"><path class="path" marker-end="url(#arrowhead203)" d="M396.20514488220215,44.78098773956299L396.20514488220203,45.66748984654744C396.2051448822021,46.5539919535319,396.2051448822021,48.32699616750081,396.20514488220203,51.2968316078186C396.2051448822021,54.26666704813639,396.2051448822021,58.433333714803055,396.20514488220203,60.51666704813639L396.20514488220215,62.60000038146973" style="fill: none;"/><defs><marker id="arrowhead203" viewBox="0 0 10 10" refX="9" refY="5" markerUnits="strokeWidth" markerWidth="8" markerHeight="6" orient="auto"><path d="M 0 0 L 10 5 L 0 10 z"/></marker></defs></g><g class="edge"><path class="path" marker-end="url(#arrowhead204)" d="M381.20514488220215,162.80000114440918L381.20514488220215,164.8833344777425C381.20514488220215,166.96666781107584,381.20514488220215,171.1333344777425,381.20514488220215,175.30000114440918C381.20514488220215,179.46666781107584,381.20514488220215,183.6333344777425,381.20514488220215,185.71666781107584L381.20514488220215,187.80000114440918" style="fill: none;"/><defs><marker id="arrowhead204" viewBox="0 0 10 10" refX="9" refY="5" markerUnits="strokeWidth" markerWidth="8" markerHeight="6" orient="auto"><path d="M 0 0 L 10 5 L 0 10 z"/></marker></defs></g><g class="edge"><path class="path" marker-end="url(#arrowhead205)" d="M560.1550388336182,162.80000114440918L560.1550388336182,164.8833344777425C560.1550388336182,166.96666781107584,560.1550388336182,171.1333344777425,542.6883900960286,176.27174706676112C525.2217413584391,181.41015965577972,490.28844388326,187.52031816715026,472.82179514567054,190.57539742283555L455.35514640808105,193.63047667852084" style="fill: none;"/><defs><marker id="arrowhead205" viewBox="0 0 10 10" refX="9" refY="5" markerUnits="strokeWidth" markerWidth="8" markerHeight="6" orient="auto"><path d="M 0 0 L 10 5 L 0 10 z"/></marker></defs></g><g class="edge"><path class="path" marker-end="url(#arrowhead206)" d="M176.2608773350919,162.80000114440918L175.26247478526537,164.8833344777425C174.26407223543885,166.96666781107584,172.26726713578583,171.1333344777425,171.26886458595934,175.30000114440918C170.2704620361328,179.46666781107584,170.2704620361328,183.6333344777425,170.2704620361328,185.71666781107584L170.2704620361328,187.80000114440918" style="fill: none;"/><defs><marker id="arrowhead206" viewBox="0 0 10 10" refX="9" refY="5" markerUnits="strokeWidth" markerWidth="8" markerHeight="6" orient="auto"><path d="M 0 0 L 10 5 L 0 10 z"/></marker></defs></g><g class="edge"><path class="path" marker-end="url(#arrowhead207)" d="M237.90759781297004,162.80000114440918L243.74061368650823,164.8833344777425C249.5736295600464,166.96666781107584,261.2396613071228,171.1333344777425,274.2811071039871,175.30000114440918C287.3225529008514,179.46666781107584,301.73941274750365,183.6333344777425,308.9478426708298,185.71666781107584L316.1562725941559,187.80000114440918" style="fill: none;"/><defs><marker id="arrowhead207" viewBox="0 0 10 10" refX="9" refY="5" markerUnits="strokeWidth" markerWidth="8" markerHeight="6" orient="auto"><path d="M 0 0 L 10 5 L 0 10 z"/></marker></defs></g><g class="edge"><path class="path" marker-end="url(#arrowhead208)" d="M170.2704620361328,225.4000015258789L170.2704620361328,227.4833348592122C170.2704620361328,229.56666819254554,170.2704620361328,233.73333485921222,170.2704620361328,237.9000015258789C170.2704620361328,242.06666819254556,170.2704620361328,246.23333485921222,170.2704620361328,248.31666819254556L170.2704620361328,250.4000015258789" style="fill: none;"/><defs><marker id="arrowhead208" viewBox="0 0 10 10" refX="9" refY="5" markerUnits="strokeWidth" markerWidth="8" markerHeight="6" orient="auto"><path d="M 0 0 L 10 5 L 0 10 z"/></marker></defs></g><g class="edge"><path class="path" marker-end="url(#arrowhead209)" d="M170.2704620361328,348L170.2704620361328,350.0833333333333C170.2704620361328,352.16666666666663,170.2704620361328,356.3333333333333,184.76984910540114,362.607184812173C199.26923617466946,368.88103629101266,228.26801031320613,377.2620725820253,242.76739738247446,381.4525907275317L257.2667844517428,385.6431088730381" style="fill: none;"/><defs><marker id="arrowhead209" viewBox="0 0 10 10" refX="9" refY="5" markerUnits="strokeWidth" markerWidth="8" markerHeight="6" orient="auto"><path d="M 0 0 L 10 5 L 0 10 z"/></marker></defs></g><g class="edge"><path class="path" marker-end="url(#arrowhead210)" d="M381.20514488220215,225.4000015258789L381.20514488220215,227.4833348592122C381.20514488220215,229.56666819254554,381.20514488220215,233.73333485921222,381.20514488220215,246.03333473205566C381.20514488220215,258.33333460489905,381.20514488220215,278.76666768391925,381.20514488220215,299.20000076293945C381.20514488220215,319.6333338419596,381.20514488220215,340.0666669209798,367.6343734744465,354.42192352783627C354.0636020666908,368.77718013469274,326.92205925117946,377.0543602693855,313.35128784342385,381.1929503367319L299.7805164356682,385.33154040407834" style="fill: none;"/><defs><marker id="arrowhead210" viewBox="0 0 10 10" refX="9" refY="5" markerUnits="strokeWidth" markerWidth="8" markerHeight="6" orient="auto"><path d="M 0 0 L 10 5 L 0 10 z"/></marker></defs></g></g></g><style xmlns="http://www.w3.org/1999/xhtml">.node &gt; .shape {stroke: #555555;stroke-width: 0.6px;fill: #FFFFFF;} path {stroke: #555;background-color: #555;stroke-width: 1px;} .node.state.NotYetStarted &gt; .shape,.node.state.Container &gt; .shape {stroke-dasharray: 5 2;} .node.state.Failed &gt; .shape,rect.legend.Failed {fill: #DE322F;} .node.state.CaughtError &gt; .shape,rect.legend.CaughtError {fill: #FFA500;} .node.state.Succeeded &gt; .shape,rect.legend.Succeeded {fill: #2BD62E;} .node.state.InProgress &gt; .shape,rect.legend.InProgress {fill: #53c9ed;} .node.state.Cancelled &gt; .shape,rect.legend.Cancelled {fill: #dddddd;} .node.anchor &gt; .shape {fill: #FFDA75;} .node.state.hovered:not(.selected):not(.NotYetStarted) &gt; .shape,.node.selected &gt; .shape {stroke: #555555;stroke-width: 2px;} .node.state.Container.Failed &gt; .shape {fill: #EE9592;} .node.state.Container.CaughtError &gt; .shape {fill: #FFD27F;} .node.state.Container.Succeeded &gt; .shape {fill: #91EA9A;} .node.state.Container.InProgress &gt; .shape {fill :#A9E4F7;} .node.state.Container.Cancelled &gt; .shape {fill: #EEEEEE;} marker {fill: #555555;} .node.anchor,.node.state.NotYetStarted {cursor: default;} .node.state {cursor: pointer;} tspan .label {font-weight: normal;font-size: 12px;text-shadow: none;} </style></svg>